<svg xmlns="http://www.w3.org/2000/svg" viewBox="0 0 1493 1491" width="100" height="100">
  <!-- Offizielles NAK Logo -->
  <path d="M746.5 0C334.1 0 0 334.1 0 746.5s334.1 746.5 746.5 746.5 746.5-334.1 746.5-746.5S1158.9 0 746.5 0zm0 1393c-357.1 0-646.5-289.4-646.5-646.5S389.4 100 746.5 100 1393 389.4 1393 746.5 1103.6 1393 746.5 1393z" fill="currentColor" fill-opacity="0.7"/>
  <path d="M746.5 248.8c-274.6 0-497.7 223.1-497.7 497.7s223.1 497.7 497.7 497.7 497.7-223.1 497.7-497.7-223.1-497.7-497.7-497.7zm0 895.9c-219.9 0-398.2-178.3-398.2-398.2s178.3-398.2 398.2-398.2 398.2 178.3 398.2 398.2-178.3 398.2-398.2 398.2z" fill="currentColor" fill-opacity="0.7"/>
  <path d="M746.5 497.7c-137.3 0-248.8 111.5-248.8 248.8s111.5 248.8 248.8 248.8 248.8-111.5 248.8-248.8-111.5-248.8-248.8-248.8zm0 398.2c-82.4 0-149.3-66.9-149.3-149.3s66.9-149.3 149.3-149.3 149.3 66.9 149.3 149.3-66.9 149.3-149.3 149.3z" fill="currentColor" fill-opacity="0.7"/>
</svg>
